<svg width="32" height="32" viewBox="0 0 32 32" fill="none" xmlns="http://www.w3.org/2000/svg">
<path d="M26.3332 25.6666H5.6665C4.56234 25.6666 3.6665 24.7707 3.6665 23.6666V8.33325C3.6665 7.22909 4.56234 6.33325 5.6665 6.33325H26.3332C27.4373 6.33325 28.3332 7.22909 28.3332 8.33325V23.6666C28.3332 24.7707 27.4373 25.6666 26.3332 25.6666Z" stroke="white" stroke-width="2" stroke-miterlimit="10"/>
<path d="M17.6665 13.6665H23.6665" stroke="white" stroke-width="2" stroke-miterlimit="10" stroke-linecap="round"/>
<path d="M17.6665 18.3333H23.6665" stroke="white" stroke-width="2" stroke-miterlimit="10" stroke-linecap="round"/>
<path d="M12.6665 13.3333C12.6665 14.4374 11.7707 15.3333 10.6665 15.3333C9.56234 15.3333 8.6665 14.4374 8.6665 13.3333C8.6665 12.2291 9.56234 11.3333 10.6665 11.3333C11.7707 11.3333 12.6665 12.2291 12.6665 13.3333Z" fill="white"/>
<path d="M12.9997 16.6665H8.33301C7.78092 16.6665 7.33301 17.1144 7.33301 17.6665C7.33301 18.6665 7.33301 20.6665 10.6004 20.6665H10.7323C13.9997 20.6665 13.9997 18.6665 13.9997 17.6665C13.9997 17.1144 13.5518 16.6665 12.9997 16.6665Z" fill="white"/>
</svg>
