<svg width="78" height="78" viewBox="0 0 78 78" fill="none" xmlns="http://www.w3.org/2000/svg">
<circle cx="39" cy="39" r="39" fill="#323247"/>
<path d="M56.6043 40.1725C55.6715 40.1725 54.6488 40.788 52.4755 41.9149C50.6716 42.8524 49.0049 43.7425 47.9443 44.3912C48.0343 44.7889 48.0911 45.2008 48.0911 45.6269C48.0911 48.6335 45.6432 51.0814 42.6366 51.0814H35.8186C35.0657 51.0814 34.4549 50.4706 34.4549 49.7178C34.4549 48.965 35.0657 48.3542 35.8186 48.3542H42.6366C44.1423 48.3542 45.3639 47.1326 45.3639 45.6269C45.3639 44.8126 44.9946 44.0881 44.4264 43.5862C43.7825 43.1601 43.0154 42.8997 42.1821 42.8997H37.6367C37.6083 42.8997 37.5846 42.895 37.561 42.8902C35.1652 42.8524 34.0099 42.6061 33.0014 42.3836C32.0781 42.18 31.2116 41.9906 29.7533 41.9906C23.0867 41.9906 19.28 50.1723 19.1237 50.5227C18.9201 50.9725 18.9722 51.4981 19.2658 51.8958L25.6293 60.5273C25.8897 60.8777 26.2969 61.0765 26.723 61.0765C26.813 61.0765 26.8982 61.0671 26.9835 61.0529C27.4996 60.9534 27.9162 60.5652 28.0488 60.0586C28.1198 59.7887 28.8158 57.445 31.2732 57.445C33.0487 57.445 34.8811 57.6722 36.6566 57.8948C38.4653 58.122 40.3355 58.354 42.1821 58.354C44.6915 58.354 46.5002 56.427 51.7274 51.0814C58.3656 44.2917 59.0001 43.6951 59.0001 42.3505C59.0001 41.1857 57.9773 40.1725 56.6043 40.1725Z" fill="#9898A8"/>
<path fill-rule="evenodd" clip-rule="evenodd" d="M42.8316 36.3503C46.5374 36.3503 49.5416 33.3462 49.5416 29.6403C49.5416 25.9345 46.5374 22.9303 42.8316 22.9303C39.1258 22.9303 36.1216 25.9345 36.1216 29.6403C36.1216 33.3462 39.1258 36.3503 42.8316 36.3503ZM42.8316 39.3503C48.1943 39.3503 52.5416 35.003 52.5416 29.6403C52.5416 24.2776 48.1943 19.9303 42.8316 19.9303C37.4689 19.9303 33.1216 24.2776 33.1216 29.6403C33.1216 35.003 37.4689 39.3503 42.8316 39.3503Z" fill="#D9D9D9"/>
</svg>
