<svg width="78" height="78" viewBox="0 0 78 78" fill="none" xmlns="http://www.w3.org/2000/svg">
<circle cx="39" cy="39" r="39" fill="#323247"/>
<path d="M56.9726 34.5213V29.9888C56.9726 27.4973 54.9356 25.4602 52.4401 25.4602H47.9115" stroke="#9898A8" stroke-width="1.97333" stroke-miterlimit="10"/>
<path d="M50.933 21.6811L47.1539 25.4602L50.933 29.2353" stroke="#9898A8" stroke-width="1.97333" stroke-miterlimit="10"/>
<path d="M22.235 45.0933V49.6259C22.235 52.1174 24.272 54.1544 26.7675 54.1544H31.2961" stroke="#9898A8" stroke-width="1.97333" stroke-miterlimit="10"/>
<path d="M27.521 57.9335L31.2961 54.1544L27.521 50.3793" stroke="#9898A8" stroke-width="1.97333" stroke-miterlimit="10"/>
<path d="M32.8946 45.0933C33.5923 38.7948 38.5912 33.7958 44.8898 33.0982C44.8898 33.0703 44.8898 33.0424 44.8898 33.0105C44.8898 26.3492 39.4682 20.9277 32.8069 20.9277C26.1456 20.9277 20.7241 26.3492 20.7241 33.0105C20.7241 39.6718 26.1456 45.0933 32.8069 45.0933C32.8388 45.0933 32.8667 45.0933 32.8946 45.0933Z" fill="#D9D9D9"/>
<path fill-rule="evenodd" clip-rule="evenodd" d="M55 46.6292C55 51.3473 51.1752 55.1721 46.4572 55.1721C41.7391 55.1721 37.9143 51.3473 37.9143 46.6292C37.9143 41.9112 41.7391 38.0864 46.4572 38.0864C51.1752 38.0864 55 41.9112 55 46.6292ZM58 46.6292C58 53.0042 52.8321 58.1721 46.4572 58.1721C40.0822 58.1721 34.9143 53.0042 34.9143 46.6292C34.9143 40.2543 40.0822 35.0864 46.4572 35.0864C52.8321 35.0864 58 40.2543 58 46.6292Z" fill="#D9D9D9"/>
</svg>
