<?xml version="1.0" encoding="UTF-8"?>
<svg id="Layer_1" data-name="Layer 1" xmlns="http://www.w3.org/2000/svg" xmlns:xlink="http://www.w3.org/1999/xlink" viewBox="0 0 2125.31 680.31">
  <defs>
    <style>
      .cls-1 {
        fill: #55b948;
      }

      .cls-1, .cls-2, .cls-3, .cls-4, .cls-5, .cls-6, .cls-7, .cls-8, .cls-9, .cls-10 {
        stroke-width: 0px;
      }

      .cls-2 {
        fill: url(#linear-gradient);
      }

      .cls-3 {
        fill: #38af4a;
      }

      .cls-4 {
        fill: #1874ae;
      }

      .cls-5 {
        fill: url(#linear-gradient-5);
      }

      .cls-6 {
        fill: #fff;
      }

      .cls-7 {
        fill: #0c0c0c;
      }

      .cls-8 {
        fill: url(#linear-gradient-2);
      }

      .cls-9 {
        fill: url(#linear-gradient-3);
      }

      .cls-10 {
        fill: url(#linear-gradient-4);
      }
    </style>
    <linearGradient id="linear-gradient" x1="354.06" y1="2215.65" x2="290.81" y2="2215.65" gradientTransform="translate(0 2600.82) scale(1 -1)" gradientUnits="userSpaceOnUse">
      <stop offset="0" stop-color="#010101" stop-opacity=".3"/>
      <stop offset="1" stop-color="#1874ae"/>
    </linearGradient>
    <linearGradient id="linear-gradient-2" x1="230.28" y1="2177.02" x2="230.28" y2="2213.87" gradientTransform="translate(0 2600.82) scale(1 -1)" gradientUnits="userSpaceOnUse">
      <stop offset="0" stop-color="#010101" stop-opacity=".3"/>
      <stop offset=".07" stop-color="#101c10" stop-opacity=".35"/>
      <stop offset=".25" stop-color="#214e25" stop-opacity=".47"/>
      <stop offset=".42" stop-color="#2b7a3c" stop-opacity=".59"/>
      <stop offset=".58" stop-color="#339c47" stop-opacity=".71"/>
      <stop offset=".74" stop-color="#3bb34a" stop-opacity=".82"/>
      <stop offset=".88" stop-color="#4fb848" stop-opacity=".92"/>
      <stop offset="1" stop-color="#55b948"/>
    </linearGradient>
    <linearGradient id="linear-gradient-3" x1="309.71" y1="2151" x2="309.71" y2="2213.87" gradientTransform="translate(0 2600.82) scale(1 -1)" gradientUnits="userSpaceOnUse">
      <stop offset="0" stop-color="#010101" stop-opacity=".3"/>
      <stop offset=".23" stop-color="#1b391d" stop-opacity=".46"/>
      <stop offset=".49" stop-color="#2b763a" stop-opacity=".65"/>
      <stop offset=".72" stop-color="#35a348" stop-opacity=".8"/>
      <stop offset=".9" stop-color="#49b749" stop-opacity=".93"/>
      <stop offset="1" stop-color="#55b948"/>
    </linearGradient>
    <linearGradient id="linear-gradient-4" x1="295.31" y1="2258.18" x2="248.64" y2="2258.18" gradientTransform="translate(0 2600.82) scale(1 -1)" gradientUnits="userSpaceOnUse">
      <stop offset="0" stop-color="#55b948"/>
      <stop offset=".06" stop-color="#43b649" stop-opacity=".92"/>
      <stop offset=".16" stop-color="#329545" stop-opacity=".78"/>
      <stop offset=".3" stop-color="#215c2e" stop-opacity=".58"/>
      <stop offset=".48" stop-color="#0d110e" stop-opacity=".33"/>
      <stop offset=".5" stop-color="#010101" stop-opacity=".3"/>
      <stop offset=".61" stop-color="#1b391d" stop-opacity=".46"/>
      <stop offset=".75" stop-color="#2b763a" stop-opacity=".65"/>
      <stop offset=".86" stop-color="#35a348" stop-opacity=".8"/>
      <stop offset=".95" stop-color="#49b749" stop-opacity=".93"/>
      <stop offset="1" stop-color="#55b948"/>
    </linearGradient>
    <linearGradient id="linear-gradient-5" x1="276.92" y1="2223.47" x2="276.92" y2="2280.51" gradientTransform="translate(0 2600.82) scale(1 -1)" gradientUnits="userSpaceOnUse">
      <stop offset="0" stop-color="#010101" stop-opacity=".3"/>
      <stop offset=".18" stop-color="#0b2333" stop-opacity=".43"/>
      <stop offset=".37" stop-color="#0c405f" stop-opacity=".56"/>
      <stop offset=".55" stop-color="#105782" stop-opacity=".68"/>
      <stop offset=".72" stop-color="#17689a" stop-opacity=".8"/>
      <stop offset=".87" stop-color="#1672a9" stop-opacity=".91"/>
      <stop offset="1" stop-color="#1874ae"/>
    </linearGradient>
  </defs>
  <g>
    <g>
      <path class="cls-7" d="m211.79,349.2v2.36l.09-4.41c-.04.69-.09,1.33-.09,2.06Z"/>
      <path class="cls-4" d="m380.37,300.69l.09,4.41v78.72c0,10.8-8.74,19.58-19.58,19.58h-27.13v-26.05h9.81c5.79,0,10.46-4.67,10.46-10.41v-47.31c0-5.79-4.67-10.46-10.46-10.46h-48.21c-5.79,0-10.46,4.67-10.46,10.46v47.31c0,5.74,4.67,10.41,10.46,10.41h12.04v26.05h-29.31c-10.8,0-19.58-8.74-19.58-19.58v-81.08c0-10.8,8.74-19.58,19.58-19.58h72.55l30-44.01-.26,61.54Z"/>
      <path class="cls-2" d="m343.64,377.35h-52.84v26.05h47.87c8.48,0,15.38-6.9,15.38-15.38v-21.08c0,5.74-4.67,10.41-10.41,10.41Z"/>
      <path class="cls-1" d="m314.2,329.61h-29.31v26.05h12.04c5.79,0,10.46,4.67,10.46,10.41v47.27c0,5.79-4.67,10.46-10.46,10.46h-48.3c-5.79,0-10.46-4.67-10.46-10.46v-47.27c0-5.74,4.67-10.41,10.46-10.41h9.81v-26.05h-16.8l-30-44.01.21,61.54-.09,4.41v78.72c0,10.8,8.74,19.58,19.58,19.58h82.88c10.8,0,19.58-8.74,19.58-19.58v-81.08c-.04-10.84-8.78-19.58-19.63-19.58Z"/>
      <path class="cls-8" d="m238.18,413.35v-26.4h-26.27v16.54c0,11.23,9.08,20.31,20.31,20.31h16.41c-5.74,0-10.46-4.67-10.46-10.46Z"/>
      <path class="cls-9" d="m333.79,430.27v-43.32h-26.4v24.34s3.34,38.52-21.77,38.52h28.63c10.8,0,19.54-8.74,19.54-19.54Z"/>
      <rect class="cls-10" x="248.64" y="329.61" width="46.67" height="26.05"/>
      <rect class="cls-4" x="258.5" y="329.61" width="26.4" height="26.05"/>
      <path class="cls-5" d="m284.89,366.89v-46.58h-26.4v39.08c0,9.9,8.06,17.96,17.96,17.96h18.9c-5.79,0-10.46-4.67-10.46-10.46Z"/>
    </g>
    <path class="cls-3" d="m296.14,124.33c-4.77-.03-9.53,1.58-13.54,4.77l-10.1,8.09c-33.56,26.85-74.01,42.56-116.88,45.41l-26.12,1.75c-11.87.76-20.93,11.08-20.19,22.93l4.96,83.43c5.67,78.6,41.57,150.38,101.03,202.08l66.62,57.93c4.06,3.53,9.14,5.27,14.21,5.27s10.15-1.75,14.21-5.27l66.62-57.93c59.45-51.7,95.33-123.48,101.03-202.17l4.96-83.32c.73-11.87-8.32-22.17-20.19-22.96l-26.12-1.75c-42.87-2.85-83.32-18.56-116.88-45.41l-10.1-8.09c-4-3.19-8.77-4.77-13.54-4.77Zm-79.42,349.73v.45c-51.7-48.51-82.89-113.72-88-184.77l-4.99-83.34c-.25-3.95,2.79-7.39,6.74-7.64l26.12-1.75c45.86-3.05,89.04-19.86,124.94-48.57l10.1-8.09c1.33-1.04,2.91-1.58,4.51-1.58s3.16.54,4.51,1.58l10.1,8.12c35.9,28.68,79.08,45.49,124.94,48.54l26.12,1.75c3.95.25,6.99,3.69,6.74,7.67l-4.99,83.23c-5.1,71.13-36.27,136.34-88,184.85v-.45l-14.44,13.4-60.24,52.38c-2.68,2.34-6.8,2.34-9.48,0l-60.24-52.4-14.44-13.37Zm79.42-314.62c-2.88,0-5.81.87-8.26,2.62l-18.56,12.97c-31.33,21.91-68.03,34.83-106.16,37.4l-4.68.31c-3.98.25-6.99,3.69-6.74,7.67.25,3.81,3.44,6.74,7.22,6.74.14,0,.31,0,.48-.03l4.68-.28c40.76-2.74,79.99-16.56,113.49-39.97l18.53-13,18.56,13c20,13.99,42.05,24.59,65.55,31.45,3.84,1.13,7.84-1.07,8.97-4.91,1.1-3.81-1.1-7.84-4.94-8.97-21.94-6.4-42.56-16.3-61.29-29.42l-18.56-12.97c-2.48-1.75-5.39-2.62-8.29-2.62Zm116.51,51.22c-3.98-.62-7.62,2.14-8.21,6.09-.56,3.95,2.14,7.62,6.09,8.21,5.81.85,11.73,1.47,17.63,1.89l4.26.25c.17.03.31.03.48.03,3.78,0,6.97-2.93,7.19-6.74.28-3.98-2.74-7.42-6.71-7.7l-4.26-.25c-5.53-.39-11.06-.99-16.47-1.78Z"/>
    <path class="cls-3" d="m296.37,159.44c-2.88,0-5.81.87-8.26,2.62l-18.56,12.97c-31.33,21.91-68.03,34.83-106.16,37.4l-4.68.31c-3.98.25-6.99,3.69-6.74,7.67.25,3.81,3.44,6.74,7.22,6.74.14,0,.31,0,.48-.03l4.68-.28c40.76-2.74,79.99-16.56,113.49-39.97l18.53-13,18.56,13c20,13.99,42.05,24.59,65.55,31.45,3.84,1.13,7.84-1.07,8.97-4.91,1.1-3.81-1.1-7.84-4.94-8.97-21.94-6.4-42.56-16.3-61.29-29.42l-18.56-12.97c-2.48-1.75-5.39-2.62-8.29-2.62Zm116.51,51.22c-3.98-.62-7.62,2.14-8.21,6.09-.56,3.95,2.14,7.62,6.09,8.21,5.81.85,11.73,1.47,17.63,1.89l4.26.25c.17.03.31.03.48.03,3.78,0,6.97-2.93,7.19-6.74.28-3.98-2.74-7.42-6.71-7.7l-4.26-.25c-5.53-.39-11.06-.99-16.47-1.78Z"/>
  </g>
  <g>
    <g>
      <path class="cls-3" d="m655.2,322.73v38.04h-52.59v-178.21c0-5.11,2.46-7.66,7.4-7.66h152.68c17.36,0,29.87,3.87,37.53,11.62,7.66,7.75,11.49,18.68,11.49,32.81v16.34c0,7.49-1.53,13.53-4.6,18.13s-6.55,8.26-10.47,10.98c5.45,2.72,9.96,6.73,13.53,12,3.57,5.28,5.36,11.83,5.36,19.66v16.34c0,15.66-3.7,27.57-11.11,35.74-7.4,8.17-20.13,12.26-38.17,12.26h-94.72l-14.55-38.04h-1.79Zm4.34-106.47c-2.9,0-4.34,1.45-4.34,4.34v31.4h88.34c5.78,0,9.87-1.1,12.25-3.32,2.38-2.21,3.57-6.04,3.57-11.49v-5.62c0-5.62-1.19-9.57-3.57-11.87-2.39-2.3-6.47-3.45-12.25-3.45h-84Zm-4.34,65.87v34.98h91.4c4.6,0,7.96-1.1,10.08-3.32,2.13-2.21,3.19-6.04,3.19-11.49v-5.36c0-5.45-.98-9.28-2.94-11.49-1.96-2.21-5.41-3.32-10.34-3.32h-91.4Z"/>
      <path class="cls-3" d="m888.56,253.28h-1.79v55.66c0,2.39,1.19,3.57,3.58,3.57h156.77v48.26h-205.53c-4.94,0-7.4-2.55-7.4-7.66v-170.55c0-5.11,2.46-7.66,7.4-7.66h199.66c5.11,0,7.66,2.55,7.66,7.66v48.26l-48.77,18.13h-2.04v-24.77c0-1.87-.85-2.81-2.55-2.81h-105.45c-1.36,0-2.26.38-2.68,1.15-.43.77-.64,1.58-.64,2.43v23.23h86.81v37.79h-72.77l-12.25-32.68Z"/>
      <path class="cls-3" d="m1122.43,174.9v131.23c0,2.04.42,3.57,1.28,4.6.85,1.02,2.46,1.53,4.85,1.53h145.53v48.51h-190.72c-4.94,0-8.43-1.23-10.47-3.7-2.04-2.47-3.06-6-3.06-10.6v-171.57h52.59Z"/>
      <path class="cls-3" d="m1289.66,182.56c0-5.11,2.38-7.66,7.15-7.66h139.4c13.79,0,25.53,1.75,35.23,5.23,9.7,3.49,17.53,8.43,23.49,14.81,5.96,6.38,10.3,14.13,13.02,23.23,2.72,9.11,4.08,19.28,4.08,30.51v38.3c0,11.23-1.36,21.41-4.08,30.51-2.72,9.11-7.07,16.85-13.02,23.23-5.96,6.38-13.79,11.32-23.49,14.81-9.7,3.49-21.45,5.23-35.23,5.23h-75.06l-16.85-43.4h-2.04v43.4h-52.59v-178.21Zm52.59,129.96h89.11c10.04,0,17.19-2.21,21.45-6.64,4.25-4.42,6.38-12.26,6.38-23.49v-31.15c0-11.57-2.13-19.44-6.38-23.62-4.26-4.17-11.41-6.26-21.45-6.26h-85.28c-1.19,0-2.13.38-2.81,1.15-.68.77-1.02,1.66-1.02,2.68v87.32Z"/>
      <path class="cls-3" d="m1587.62,253.28h-1.79v55.66c0,2.39,1.19,3.57,3.58,3.57h156.77v48.26h-205.53c-4.94,0-7.4-2.55-7.4-7.66v-170.55c0-5.11,2.46-7.66,7.4-7.66h199.66c5.11,0,7.66,2.55,7.66,7.66v48.26l-48.77,18.13h-2.04v-24.77c0-1.87-.85-2.81-2.55-2.81h-105.45c-1.36,0-2.26.38-2.68,1.15-.43.77-.64,1.58-.64,2.43v23.23h86.81v37.79h-72.77l-12.25-32.68Z"/>
      <path class="cls-3" d="m2009.91,174.9v2.04l-86.81,85.28,90.64,96.51v2.04h-66.89l-60.51-64.85-62.55,64.85h-63.83v-2.04l92.94-96.26-84.25-85.53v-2.04h65.36l54.13,57.45,58.21-57.45h63.57Z"/>
    </g>
    <g>
      <path class="cls-6" d="m640.75,468.7h-.92v41.89h-27.05v-91.66c0-2.63,1.27-3.94,3.81-3.94h74.06c6.48,0,11.97.79,16.48,2.36,4.51,1.58,8.16,3.83,10.97,6.76,2.8,2.93,4.84,6.5,6.11,10.7,1.27,4.2,1.9,8.93,1.9,14.18v7.75c0,10.94-2.65,19.15-7.94,24.62-5.3,5.47-14.03,8.21-26.2,8.21h-43.2l-8.01-20.88Zm.79-29.81c-1.14,0-1.71.61-1.71,1.84v25.48h47.41c4.38,0,7.44-.87,9.19-2.63,1.75-1.75,2.63-4.6,2.63-8.54v-4.73c0-4.46-.88-7.48-2.63-9.06-1.75-1.58-4.82-2.36-9.19-2.36h-45.7Z"/>
      <path class="cls-6" d="m795.97,468.7h-1.05v-9.85c0-.96-.44-1.44-1.31-1.44h-29.02c-2.1,0-3.59.48-4.46,1.44-.88.96-1.31,2.63-1.31,4.99v46.75h-23.77v-51.87c0-6.13,1.6-11.03,4.79-14.71,3.2-3.68,8.29-5.52,15.3-5.52h58.44c2.28,0,3.42,1.18,3.42,3.55v18.65l-21.01,8.01Z"/>
      <path class="cls-6" d="m825.91,427.2v-19.04h23.77v19.04h-23.77Zm0,83.39v-72.09h23.77v72.09h-23.77Z"/>
      <path class="cls-6" d="m904.44,491.41c.26.52.7.79,1.31.79h1.05c.53,0,.92-.26,1.18-.79l21.67-52.92h24.82v1.05l-30.99,68.55c-.44.96-.92,1.62-1.44,1.97-.53.35-1.31.53-2.36.53h-27.31c-1.14,0-1.97-.17-2.5-.53-.53-.35-1.01-1.01-1.44-1.97l-30.99-68.55v-1.05h25.34l21.67,52.92Z"/>
      <path class="cls-6" d="m962.08,456.35v-17.86h66.97c4.73,0,8.21,1.31,10.44,3.94s3.35,6.43,3.35,11.42v53.58c0,2.1-1.01,3.15-3.02,3.15h-62.9c-2.63,0-4.97-.33-7.03-.98-2.06-.66-3.81-1.77-5.25-3.35s-2.54-3.65-3.28-6.24c-.75-2.58-1.12-5.8-1.12-9.65v-5.38c0-6.83,1.46-11.71,4.4-14.64,2.93-2.93,7.03-4.4,12.28-4.4h36.64l4.46,10.64h.92v-14.58c0-2.01-.42-3.46-1.25-4.33-.83-.87-2.08-1.31-3.74-1.31h-51.87Zm55.42,36.38c.96,0,1.44-.53,1.44-1.58v-11.03h-31.25c-1.58,0-2.69.39-3.35,1.18-.66.79-.98,1.97-.98,3.55v3.15c0,1.49.33,2.65.98,3.48.66.83,1.77,1.25,3.35,1.25h29.81Z"/>
      <path class="cls-6" d="m1118.62,468.7h-1.18v-9.85c0-.96-.39-1.44-1.18-1.44h-29.15c-3.77,0-6.37.81-7.81,2.43-1.44,1.62-2.17,4.58-2.17,8.86v10.11c0,4.12.72,6.92,2.17,8.4,1.44,1.49,4.05,2.23,7.81,2.23h51.34v21.14h-55.81c-5.34,0-9.87-.68-13.59-2.04-3.72-1.36-6.76-3.28-9.13-5.78-2.36-2.5-4.07-5.49-5.12-9-1.05-3.5-1.58-7.44-1.58-11.82v-14.84c0-4.29.53-8.21,1.58-11.75,1.05-3.55,2.76-6.57,5.12-9.06,2.36-2.5,5.41-4.42,9.13-5.78,3.72-1.36,8.25-2.04,13.59-2.04h53.45c2.36,0,3.55,1.18,3.55,3.55v18.65l-21.01,8.01Z"/>
      <path class="cls-6" d="m1211.85,502.05h.92v-63.56h23.9v73.54c0,4.2-.5,8.03-1.51,11.49-1.01,3.46-2.65,6.41-4.92,8.86-2.28,2.45-5.3,4.35-9.06,5.71-3.77,1.36-8.4,2.04-13.92,2.04h-54.76v-20.09h51.08c3.41,0,5.8-.77,7.16-2.3,1.36-1.53,2.04-3.96,2.04-7.29v-5.78h-34.01c-10.77,0-18.38-2.17-22.85-6.5s-6.7-10.92-6.7-19.76v-39.92h23.9v36.77c0,3.94.74,6.63,2.23,8.08,1.49,1.44,4.11,2.17,7.88,2.17h22.19l6.43,16.55Z"/>
      <path class="cls-6" d="m1331.74,468.7h-.92v41.89h-27.05v-91.66c0-2.63,1.27-3.94,3.81-3.94h74.06c6.48,0,11.97.79,16.48,2.36,4.51,1.58,8.16,3.83,10.97,6.76,2.8,2.93,4.84,6.5,6.11,10.7,1.27,4.2,1.9,8.93,1.9,14.18v7.75c0,10.94-2.65,19.15-7.94,24.62-5.3,5.47-14.03,8.21-26.2,8.21h-43.2l-8.01-20.88Zm.79-29.81c-1.14,0-1.71.61-1.71,1.84v25.48h47.41c4.38,0,7.44-.87,9.19-2.63,1.75-1.75,2.63-4.6,2.63-8.54v-4.73c0-4.46-.88-7.48-2.63-9.06-1.75-1.58-4.82-2.36-9.19-2.36h-45.7Z"/>
      <path class="cls-6" d="m1486.96,468.7h-1.05v-9.85c0-.96-.44-1.44-1.31-1.44h-29.02c-2.1,0-3.59.48-4.46,1.44-.88.96-1.31,2.63-1.31,4.99v46.75h-23.77v-51.87c0-6.13,1.6-11.03,4.79-14.71,3.2-3.68,8.29-5.52,15.3-5.52h58.44c2.28,0,3.42,1.18,3.42,3.55v18.65l-21.01,8.01Z"/>
      <path class="cls-6" d="m1609.35,481.96c0,4.38-.53,8.32-1.58,11.82-1.05,3.5-2.76,6.5-5.12,9-2.36,2.5-5.43,4.42-9.19,5.78-3.77,1.36-8.32,2.04-13.66,2.04h-34.67c-5.34,0-9.87-.68-13.59-2.04-3.72-1.36-6.76-3.28-9.13-5.78-2.36-2.5-4.07-5.49-5.12-9-1.05-3.5-1.58-7.44-1.58-11.82v-14.84c0-4.29.53-8.21,1.58-11.75,1.05-3.55,2.76-6.57,5.12-9.06,2.36-2.5,5.41-4.42,9.13-5.78,3.72-1.36,8.25-2.04,13.59-2.04h34.67c5.34,0,9.89.68,13.66,2.04,3.76,1.36,6.83,3.28,9.19,5.78,2.36,2.5,4.07,5.52,5.12,9.06,1.05,3.55,1.58,7.46,1.58,11.75v14.84Zm-33.88,7.49c3.76,0,6.39-.74,7.88-2.23,1.49-1.49,2.23-4.29,2.23-8.4v-10.11c0-4.38-.77-7.35-2.3-8.93-1.53-1.58-4.14-2.36-7.81-2.36h-25.87c-3.77,0-6.37.81-7.81,2.43-1.44,1.62-2.17,4.58-2.17,8.86v10.11c0,4.12.72,6.92,2.17,8.4,1.44,1.49,4.05,2.23,7.81,2.23h25.87Z"/>
      <path class="cls-6" d="m1670.67,456.61h-21.01v53.97h-23.77v-53.97h-9.46l-6.57-17.07v-1.05h16.02v-23.51h23.77v23.51h21.01v18.12Z"/>
      <path class="cls-6" d="m1769.56,481.96c0,4.38-.53,8.32-1.58,11.82-1.05,3.5-2.76,6.5-5.12,9-2.36,2.5-5.43,4.42-9.19,5.78-3.77,1.36-8.32,2.04-13.66,2.04h-34.67c-5.34,0-9.87-.68-13.59-2.04-3.72-1.36-6.76-3.28-9.13-5.78-2.36-2.5-4.07-5.49-5.12-9-1.05-3.5-1.58-7.44-1.58-11.82v-14.84c0-4.29.53-8.21,1.58-11.75,1.05-3.55,2.76-6.57,5.12-9.06,2.36-2.5,5.41-4.42,9.13-5.78,3.72-1.36,8.25-2.04,13.59-2.04h34.67c5.34,0,9.89.68,13.66,2.04,3.76,1.36,6.83,3.28,9.19,5.78,2.36,2.5,4.07,5.52,5.12,9.06,1.05,3.55,1.58,7.46,1.58,11.75v14.84Zm-33.88,7.49c3.76,0,6.39-.74,7.88-2.23,1.49-1.49,2.23-4.29,2.23-8.4v-10.11c0-4.38-.77-7.35-2.3-8.93-1.53-1.58-4.14-2.36-7.81-2.36h-25.87c-3.77,0-6.37.81-7.81,2.43-1.44,1.62-2.17,4.58-2.17,8.86v10.11c0,4.12.72,6.92,2.17,8.4,1.44,1.49,4.05,2.23,7.81,2.23h25.87Z"/>
      <path class="cls-6" d="m1844.8,468.7h-1.18v-9.85c0-.96-.39-1.44-1.18-1.44h-29.15c-3.77,0-6.37.81-7.81,2.43-1.44,1.62-2.17,4.58-2.17,8.86v10.11c0,4.12.72,6.92,2.17,8.4,1.44,1.49,4.05,2.23,7.81,2.23h51.34v21.14h-55.81c-5.34,0-9.87-.68-13.59-2.04-3.72-1.36-6.76-3.28-9.13-5.78-2.36-2.5-4.07-5.49-5.12-9-1.05-3.5-1.58-7.44-1.58-11.82v-14.84c0-4.29.53-8.21,1.58-11.75,1.05-3.55,2.76-6.57,5.12-9.06,2.36-2.5,5.41-4.42,9.13-5.78,3.72-1.36,8.25-2.04,13.59-2.04h53.45c2.36,0,3.55,1.18,3.55,3.55v18.65l-21.01,8.01Z"/>
      <path class="cls-6" d="m1968.76,481.96c0,4.38-.53,8.32-1.58,11.82-1.05,3.5-2.76,6.5-5.12,9-2.36,2.5-5.43,4.42-9.19,5.78-3.77,1.36-8.32,2.04-13.66,2.04h-34.67c-5.34,0-9.87-.68-13.59-2.04-3.72-1.36-6.76-3.28-9.13-5.78-2.36-2.5-4.07-5.49-5.12-9-1.05-3.5-1.58-7.44-1.58-11.82v-14.84c0-4.29.53-8.21,1.58-11.75,1.05-3.55,2.76-6.57,5.12-9.06,2.36-2.5,5.41-4.42,9.13-5.78,3.72-1.36,8.25-2.04,13.59-2.04h34.67c5.34,0,9.89.68,13.66,2.04,3.76,1.36,6.83,3.28,9.19,5.78,2.36,2.5,4.07,5.52,5.12,9.06,1.05,3.55,1.58,7.46,1.58,11.75v14.84Zm-33.88,7.49c3.76,0,6.39-.74,7.88-2.23,1.49-1.49,2.23-4.29,2.23-8.4v-10.11c0-4.38-.77-7.35-2.3-8.93-1.53-1.58-4.14-2.36-7.81-2.36h-25.87c-3.77,0-6.37.81-7.81,2.43-1.44,1.62-2.17,4.58-2.17,8.86v10.11c0,4.12.72,6.92,2.17,8.4,1.44,1.49,4.05,2.23,7.81,2.23h25.87Z"/>
      <path class="cls-6" d="m1979.79,510.59v-102.43h23.77v102.43h-23.77Z"/>
    </g>
  </g>
</svg>