<svg width="78" height="78" viewBox="0 0 78 78" fill="none" xmlns="http://www.w3.org/2000/svg">
<circle cx="39" cy="39" r="39" fill="#323247"/>
<path d="M54.211 40.541C54.211 40.5607 54.2149 40.5843 54.2149 40.6039C54.2149 48.5114 47.7852 54.9411 39.8777 54.9411C39.8581 54.9411 39.8345 54.9372 39.8148 54.9372C41.662 56.8001 44.2205 57.9595 47.0463 57.9595C52.6625 57.9595 57.2333 53.3887 57.2333 47.7725C57.2333 44.9467 56.0739 42.3882 54.211 40.541Z" fill="#9898A8"/>
<path fill-rule="evenodd" clip-rule="evenodd" d="M48.7982 37.0158C48.7982 43.6519 43.4185 49.0316 36.7824 49.0316C30.1462 49.0316 24.7666 43.6519 24.7666 37.0158C24.7666 30.3796 30.1462 25 36.7824 25C43.4185 25 48.7982 30.3796 48.7982 37.0158ZM52.7982 37.0158C52.7982 45.861 45.6276 53.0316 36.7824 53.0316C27.9371 53.0316 20.7666 45.861 20.7666 37.0158C20.7666 28.1705 27.9371 21 36.7824 21C45.6276 21 52.7982 28.1705 52.7982 37.0158Z" fill="#D9D9D9"/>
</svg>
